<svg width="24px" height="25px" viewBox="0 0 24 25" version="1.1" xmlns="http://www.w3.org/2000/svg" xmlns:xlink="http://www.w3.org/1999/xlink">
    <g stroke="none" stroke-width="1" fill="none" fill-rule="evenodd">
        <g transform="translate(-569.000000, -1040.000000)" fill="#00A890" fill-rule="nonzero">
            <path d="M581,1064.5 C582.65625,1064.5 584.214844,1064.1875 585.675781,1063.5625 C587.136719,1062.9375 588.410156,1062.08203 589.496094,1060.99609 C590.582031,1059.91016 591.4375,1058.63672 592.0625,1057.17578 C592.6875,1055.71484 593,1054.15625 593,1052.5 C593,1050.84375 592.6875,1049.28516 592.0625,1047.82422 C591.4375,1046.36328 590.582031,1045.08984 589.496094,1044.00391 C588.410156,1042.91797 587.136719,1042.0625 585.675781,1041.4375 C584.214844,1040.8125 582.65625,1040.5 581,1040.5 C579.34375,1040.5 577.785156,1040.8125 576.324219,1041.4375 C574.863281,1042.0625 573.589844,1042.91797 572.503906,1044.00391 C571.417969,1045.08984 570.5625,1046.36328 569.9375,1047.82422 C569.3125,1049.28516 569,1050.84375 569,1052.5 C569,1054.15625 569.3125,1055.71484 569.9375,1057.17578 C570.5625,1058.63672 571.417969,1059.91016 572.503906,1060.99609 C573.589844,1062.08203 574.863281,1062.9375 576.324219,1063.5625 C577.785156,1064.1875 579.34375,1064.5 581,1064.5 Z M581,1063.02344 C579.546875,1063.02344 578.183594,1062.74609 576.910156,1062.19141 C575.636719,1061.63672 574.527344,1060.88281 573.582031,1059.92969 C572.636719,1058.97656 571.886719,1057.86328 571.332031,1056.58984 C570.777344,1055.31641 570.5,1053.95312 570.5,1052.5 C570.5,1051.04688 570.777344,1049.68359 571.332031,1048.41016 C571.886719,1047.13672 572.636719,1046.02734 573.582031,1045.08203 C574.527344,1044.13672 575.636719,1043.38672 576.910156,1042.83203 C578.183594,1042.27734 579.546875,1042 581,1042 C582.453125,1042 583.816406,1042.27734 585.089844,1042.83203 C586.363281,1043.38672 587.472656,1044.13672 588.417969,1045.08203 C589.363281,1046.02734 590.113281,1047.13672 590.667969,1048.41016 C591.222656,1049.68359 591.5,1051.04688 591.5,1052.5 C591.5,1053.95312 591.222656,1055.31641 590.667969,1056.58984 C590.113281,1057.86328 589.363281,1058.97656 588.417969,1059.92969 C587.472656,1060.88281 586.363281,1061.63672 585.089844,1062.19141 C583.816406,1062.74609 582.453125,1063.02344 581,1063.02344 Z M582.007812,1057.28125 C582.101562,1057.28125 582.195312,1057.26172 582.289062,1057.22266 C582.382812,1057.18359 582.46875,1057.13281 582.546875,1057.07031 L586.976562,1052.52344 L582.546875,1047.97656 C582.390625,1047.82031 582.210938,1047.74219 582.007812,1047.74219 C581.804688,1047.74219 581.625,1047.82031 581.46875,1047.97656 C581.328125,1048.11719 581.257812,1048.29297 581.257812,1048.50391 C581.257812,1048.71484 581.328125,1048.89062 581.46875,1049.03125 L584.1875,1051.75 L575.75,1051.75 C575.53125,1051.75 575.351562,1051.82031 575.210938,1051.96094 C575.070312,1052.10156 575,1052.28125 575,1052.5 C575,1052.70312 575.070312,1052.87891 575.210938,1053.02734 C575.351562,1053.17578 575.53125,1053.25 575.75,1053.25 L584.234375,1053.25 L581.46875,1055.99219 C581.328125,1056.14844 581.257812,1056.32812 581.257812,1056.53125 C581.257812,1056.73438 581.328125,1056.91406 581.46875,1057.07031 C581.546875,1057.13281 581.632812,1057.18359 581.726562,1057.22266 C581.820312,1057.26172 581.914062,1057.28125 582.007812,1057.28125 Z"></path>
        </g>
    </g>
</svg>
