<svg width="18px" height="25px" viewBox="0 0 18 25" version="1.1" xmlns="http://www.w3.org/2000/svg" xmlns:xlink="http://www.w3.org/1999/xlink">
    <g stroke="none" stroke-width="1" fill="none" fill-rule="evenodd">
        <g transform="translate(-973.000000, -410.000000)" fill="#00A890" fill-rule="nonzero">
            <path d="M982.328125,434.5 C982.640625,434.5 982.914062,434.402344 983.148438,434.207031 C983.382812,434.011719 983.5,433.90625 983.5,433.890625 C984.265625,433.015625 985.085938,432.015625 985.960938,430.890625 C986.835938,429.765625 987.648438,428.574219 988.398438,427.316406 C989.148438,426.058594 989.769531,424.777344 990.261719,423.472656 C990.753906,422.167969 991,420.890625 991,419.640625 C991,418.40625 990.800781,417.234375 990.402344,416.125 C990.003906,415.015625 989.425781,414.042969 988.667969,413.207031 C987.910156,412.371094 986.976562,411.710938 985.867188,411.226562 C984.757812,410.742188 983.5,410.5 982.09375,410.5 C980.859375,410.5 979.691406,410.742188 978.589844,411.226562 C977.488281,411.710938 976.523438,412.371094 975.695312,413.207031 C974.867188,414.042969 974.210938,415.015625 973.726562,416.125 C973.242188,417.234375 973,418.40625 973,419.640625 C973,420.9375 973.269531,422.234375 973.808594,423.53125 C974.347656,424.828125 975.019531,426.089844 975.824219,427.316406 C976.628906,428.542969 977.503906,429.710938 978.449219,430.820312 C979.394531,431.929688 980.273438,432.953125 981.085938,433.890625 C981.085938,433.90625 981.199219,434.011719 981.425781,434.207031 C981.652344,434.402344 981.929688,434.5 982.257812,434.5 L982.328125,434.5 Z M982.28125,432.976562 C982.265625,432.960938 982.25,432.945312 982.234375,432.929688 C982.21875,432.914062 982.203125,432.898438 982.1875,432.882812 L981.789062,432.4375 C981.023438,431.546875 980.210938,430.589844 979.351562,429.566406 C978.492188,428.542969 977.703125,427.480469 976.984375,426.378906 C976.265625,425.277344 975.671875,424.15625 975.203125,423.015625 C974.734375,421.875 974.5,420.75 974.5,419.640625 C974.5,418.609375 974.703125,417.628906 975.109375,416.699219 C975.515625,415.769531 976.0625,414.957031 976.75,414.261719 C977.4375,413.566406 978.242188,413.015625 979.164062,412.609375 C980.085938,412.203125 981.0625,412 982.09375,412 C983.375,412 984.480469,412.21875 985.410156,412.65625 C986.339844,413.09375 987.109375,413.671875 987.71875,414.390625 C988.328125,415.109375 988.777344,415.925781 989.066406,416.839844 C989.355469,417.753906 989.5,418.6875 989.5,419.640625 C989.5,420.484375 989.351562,421.394531 989.054688,422.371094 C988.757812,423.347656 988.3125,424.386719 987.71875,425.488281 C987.125,426.589844 986.382812,427.757812 985.492188,428.992188 C984.601562,430.226562 983.5625,431.523438 982.375,432.882812 C982.375,432.893229 982.369792,432.903646 982.359375,432.914062 L982.339844,432.929688 C982.316406,432.945312 982.296875,432.960938 982.28125,432.976562 Z M982.023438,424.023438 C983.273438,424.023438 984.335938,423.585938 985.210938,422.710938 C986.085938,421.835938 986.523438,420.773438 986.523438,419.523438 C986.523438,418.289062 986.085938,417.230469 985.210938,416.347656 C984.335938,415.464844 983.273438,415.023438 982.023438,415.023438 C980.789062,415.023438 979.730469,415.464844 978.847656,416.347656 C977.964844,417.230469 977.523438,418.289062 977.523438,419.523438 C977.523438,420.773438 977.964844,421.835938 978.847656,422.710938 C979.730469,423.585938 980.789062,424.023438 982.023438,424.023438 Z M982.023438,422.523438 C981.195312,422.523438 980.484375,422.226562 979.890625,421.632812 C979.296875,421.039062 979,420.328125 979,419.5 C979,418.671875 979.292969,417.964844 979.878906,417.378906 C980.464844,416.792969 981.171875,416.5 982,416.5 C982.828125,416.5 983.535156,416.792969 984.121094,417.378906 C984.707031,417.964844 985,418.671875 985,419.5 C985,420.328125 984.710938,421.039062 984.132812,421.632812 C983.554688,422.226562 982.851562,422.523438 982.023438,422.523438 Z"></path>
        </g>
    </g>
</svg>
